<?xml version="1.0" encoding="UTF-8" standalone="no"?>
<!-- Created with Inkscape (http://www.inkscape.org/) -->

<svg
   xmlns:dc="http://purl.org/dc/elements/1.1/"
   xmlns:cc="http://creativecommons.org/ns#"
   xmlns:rdf="http://www.w3.org/1999/02/22-rdf-syntax-ns#"
   xmlns:svg="http://www.w3.org/2000/svg"
   xmlns="http://www.w3.org/2000/svg"
   xmlns:sodipodi="http://sodipodi.sourceforge.net/DTD/sodipodi-0.dtd"
   xmlns:inkscape="http://www.inkscape.org/namespaces/inkscape"
   id="svg2"
   version="1.1"
   inkscape:version="0.48.2 r9819"
   width="500"
   height="750"
   sodipodi:docname="cover.svg"
   inkscape:export-filename="/home/nari/private/my_paper/gcbook/g1gc-impl-book/misc/cover.png"
   inkscape:export-xdpi="90"
   inkscape:export-ydpi="90">
  <metadata
     id="metadata8">
    <rdf:RDF>
      <cc:Work
         rdf:about="">
        <dc:format>image/svg+xml</dc:format>
        <dc:type
           rdf:resource="http://purl.org/dc/dcmitype/StillImage" />
        <dc:title></dc:title>
      </cc:Work>
    </rdf:RDF>
  </metadata>
  <defs
     id="defs6" />
  <sodipodi:namedview
     pagecolor="#ffffff"
     bordercolor="#666666"
     borderopacity="1"
     objecttolerance="10"
     gridtolerance="10"
     guidetolerance="10"
     inkscape:pageopacity="0"
     inkscape:pageshadow="2"
     inkscape:window-width="1366"
     inkscape:window-height="678"
     id="namedview4"
     showgrid="false"
     inkscape:zoom="0.68133333"
     inkscape:cx="250"
     inkscape:cy="375"
     inkscape:window-x="0"
     inkscape:window-y="33"
     inkscape:window-maximized="1"
     inkscape:current-layer="svg2" />
  <text
     xml:space="preserve"
     style="font-size:40px;font-style:normal;font-variant:normal;font-weight:normal;font-stretch:normal;line-height:125%;letter-spacing:0px;word-spacing:0px;fill:#000000;fill-opacity:1;stroke:none;font-family:'しねきゃぷしょん';-inkscape-font-specification:'しねきゃぷしょん'"
     x="39.690407"
     y="115.94912"
     id="text2987"
     sodipodi:linespacing="125%"><tspan
       sodipodi:role="line"
       id="tspan2989"
       x="39.690407"
       y="115.94912"
       style="font-size:72px;font-style:normal;font-variant:normal;font-weight:bold;font-stretch:normal;text-align:start;text-anchor:start;font-family:Times New Roman;-inkscape-font-specification:Times New Roman">徹底解剖</tspan><tspan
       sodipodi:role="line"
       x="39.690407"
       y="205.94911"
       style="font-size:72px;font-style:normal;font-variant:normal;font-weight:bold;font-stretch:normal;text-align:start;text-anchor:start;font-family:Times New Roman;-inkscape-font-specification:Times New Roman"
       id="tspan3005">「G1GC」</tspan><tspan
       sodipodi:role="line"
       x="39.690407"
       y="305.4039"
       id="tspan2997"
       style="font-size:72px;font-style:normal;font-variant:normal;font-weight:bold;font-stretch:normal;text-align:start;text-anchor:start;font-family:Times New Roman;-inkscape-font-specification:Times New Roman">実装編</tspan></text>
  <text
     xml:space="preserve"
     style="font-size:40px;font-style:normal;font-variant:normal;font-weight:normal;font-stretch:normal;line-height:125%;letter-spacing:0px;word-spacing:0px;fill:#000000;fill-opacity:1;stroke:none;font-family:'しねきゃぷしょん';-inkscape-font-specification:'しねきゃぷしょん'"
     x="339.04111"
     y="41.09589"
     id="text2991"
     sodipodi:linespacing="125%"><tspan
       sodipodi:role="line"
       id="tspan2993"
       x="339.04111"
       y="41.09589" /><tspan
       sodipodi:role="line"
       id="tspan2995"
       x="339.04111"
       y="91.095886" /></text>
  <text
     xml:space="preserve"
     style="font-size:40px;font-style:normal;font-variant:normal;font-weight:normal;font-stretch:normal;line-height:125%;letter-spacing:0px;word-spacing:0px;fill:#000000;fill-opacity:1;stroke:none;font-family:'しねきゃぷしょん';-inkscape-font-specification:'しねきゃぷしょん'"
     x="315.55774"
     y="158.51273"
     id="text2999"
     sodipodi:linespacing="125%"><tspan
       sodipodi:role="line"
       id="tspan3001"
       x="315.55774"
       y="158.51273" /><tspan
       sodipodi:role="line"
       id="tspan3003"
       x="315.55774"
       y="208.51273" /></text>
  <path
     style="fill:#000000;fill-opacity:1;fill-rule:nonzero;stroke:none"
     id="path3047"
     d="m 47.215976,637.69091 c 1.16731,-0.70579 4.53749,-2.44863 -0.73713,0.43803 -0.40335,0.22075 0.78903,-0.47233 1.18494,-0.70617 0.41769,-0.24671 0.83561,-0.49307 1.25584,-0.73544 1.64751,-0.95023 3.29822,-1.89489 4.94733,-2.84233 -0.78607,0.44902 -1.5656,0.90969 -2.35821,1.34706 -0.43179,0.23827 0.84879,-0.50244 1.27554,-0.74964 2.77869,-1.60957 5.5189,-3.22549 8.39402,-4.64423 1.60726,-0.76462 3.23998,-1.38776 4.98036,-1.76003 0.96047,-0.0808 1.81499,-0.57475 2.74507,-0.78646 0.32343,-0.18979 0.78689,-0.009 1.11228,-0.13821 0.0728,-0.0289 0.24158,-0.197 0.1729,-0.15927 -1.1425,0.62762 -2.26668,1.28803 -3.40002,1.93205 0.0203,-1.86033 5.06907,-3.44364 4.66288,-1.1473 -0.68307,1.49137 -1.65729,2.84801 -2.60158,4.18508 -0.88807,1.34339 -1.73735,2.71839 -2.50936,4.13293 -0.28561,0.61134 -0.44716,1.25573 -0.77827,1.84649 -0.23868,0.55422 -0.53071,1.07837 -0.81761,1.60926 -0.24204,0.44022 -0.56897,0.81442 -0.80763,1.25785 0,0 -3.95968,1.78884 -3.95968,1.78884 l 0,0 c 0.21912,-0.4582 0.43857,-0.89485 0.82093,-1.24151 0.21582,-0.57854 0.66351,-1.03787 0.79182,-1.65627 0.3794,-0.57782 0.60175,-1.17549 0.80412,-1.83704 0.78788,-1.43282 1.6528,-2.82061 2.53094,-4.19813 0.9343,-1.29643 1.81033,-2.63258 2.60576,-4.01865 0.0291,-0.0726 0.0582,-0.14514 0.0873,-0.21772 0.0283,-0.0138 0.0686,-0.0146 0.085,-0.0415 0.0461,-0.0754 -0.39793,0.004 -0.34711,0.004 1.15759,-0.67857 2.31518,-1.35713 3.47276,-2.0357 -3.78016,2.18612 -2.88866,2.0839 -5.36497,2.57565 -0.90229,0.28638 -1.79032,0.63659 -2.73638,0.7554 -1.70488,0.3981 -3.30521,1.06783 -4.88485,1.81773 -1.45649,0.7351 -0.67854,0.33177 -2.19588,1.14389 -0.41094,0.21994 -1.62763,0.90748 -1.23305,0.65939 0.76109,-0.47853 1.55261,-0.90692 2.33397,-1.35159 0.42858,-0.24389 -0.85038,0.49951 -1.27558,0.74927 -1.63535,0.94899 -3.27071,1.89799 -4.90606,2.84698 0.77313,-0.45038 1.54612,-0.901 2.31939,-1.35116 0.41734,-0.24295 -0.83572,0.48414 -1.25161,0.72956 -0.39392,0.23246 -0.78295,0.47317 -1.17779,0.70406 -1.5819,0.92503 -3.16553,1.84711 -4.75236,2.76364 -0.59032,0.34096 -1.25661,0.69981 -1.86015,1.02852 0,0 3.37212,-2.69738 3.37212,-2.69738 z"
     inkscape:connector-curvature="0" />
  <path
     style="fill:#000000;fill-opacity:1;fill-rule:nonzero;stroke:none"
     id="path3069"
     d="m 47.272146,637.04482 c 1.38998,1.18184 2.86293,2.25905 4.32151,3.35432 0.74056,0.60295 1.6125,1.10984 2.18453,1.88805 0.40236,0.43302 0.8503,0.82175 1.28858,1.21795 0.35471,0.54265 0.87625,0.95537 1.35674,1.38398 0.30913,0.3816 0.67412,0.93307 1.17604,1.06639 0.26237,0.015 0.40917,0.22829 0.57532,0.40374 0,0 -3.70659,2.27328 -3.70659,2.27328 l 0,0 c -0.14889,-0.13553 -0.2943,-0.2175 -0.4918,-0.27562 -0.49234,-0.2951 -0.89425,-0.72824 -1.24138,-1.18186 -0.47633,-0.43626 -0.98928,-0.85074 -1.36111,-1.3842 -0.45275,-0.41872 -0.92763,-0.81726 -1.3262,-1.29022 -0.56089,-0.73125 -1.39908,-1.20853 -2.09138,-1.80184 -1.4609,-1.10225 -2.90441,-2.22508 -4.34275,-3.35597 0,0 3.65849,-2.298 3.65849,-2.298 z"
     inkscape:connector-curvature="0" />
  <path
     style="fill:#000000;fill-opacity:1;fill-rule:nonzero;stroke:none"
     id="path3071"
     d="m 59.297216,637.47511 c -0.12701,1.90132 0.12935,3.77959 0.41885,5.65258 0.41648,2.6262 0.69606,0.91479 -3.42281,2.94542 0.0561,-0.11614 0.11212,-0.23228 0.16818,-0.34841 0,0 3.9405,-1.80231 3.9405,-1.80231 l 0,0 c -0.0524,0.12496 -0.10476,0.24992 -0.15713,0.37487 -4.2456,2.6616 -3.89406,3.7675 -4.33585,0.84112 -0.26676,-1.89256 -0.53653,-3.78607 -0.45751,-5.70376 0,0 3.84577,-1.95951 3.84577,-1.95951 z"
     inkscape:connector-curvature="0" />
  <path
     style="fill:#000000;fill-opacity:1;fill-rule:nonzero;stroke:none"
     id="path3073"
     d="m 53.485906,649.12529 c 0.90352,-1.62267 1.81805,-3.24575 2.90719,-4.75234 1.435,-2.3452 2.40899,-2.41483 5.34773,-4.10925 0.55232,-0.11475 1.12563,-0.0878 1.68723,-0.0794 0.43245,-0.0399 0.98623,0.17171 1.32404,-0.13333 1.57862,-1.09211 -4.47701,2.45952 -3.33312,1.89099 2.40919,-1.1974 2.71269,-1.88546 4.41841,-2.38809 0,0 -3.43322,2.66712 -3.43322,2.66712 l 0,0 c -0.14299,0.0535 -0.55509,0.2516 -0.42373,0.17381 7.27484,-4.30784 1.82882,-0.91779 -0.64732,0.33907 -0.47284,0.034 -0.94651,-1.9e-4 -1.42036,10e-4 -0.53002,10e-4 -1.08305,-0.009 -1.56825,0.23437 6.01848,-3.56013 3.0949,-2.26425 2.00184,-0.30105 -1.12465,1.46071 -2.03508,3.06557 -2.92615,4.6771 0,0 -3.93429,1.77999 -3.93429,1.77999 z"
     inkscape:connector-curvature="0" />
  <path
     style="fill:#000000;fill-opacity:1;fill-rule:nonzero;stroke:none"
     id="path3075"
     d="m 59.002746,646.95982 c -1.05694,1.85302 -1.90105,3.82378 -2.69714,5.80116 -0.19551,0.50211 -0.36931,0.99708 -0.42612,1.53244 0,0 -3.86983,1.94734 -3.86983,1.94734 l 0,0 c 0.004,-0.5983 0.17244,-1.11745 0.39224,-1.67759 0.82017,-1.98532 1.6851,-3.95355 2.64791,-5.87381 0,0 3.95294,-1.72954 3.95294,-1.72954 z"
     inkscape:connector-curvature="0" />
  <path
     style="fill:#000000;fill-opacity:1;fill-rule:nonzero;stroke:none"
     id="path3077"
     d="m 63.805426,642.4177 c 0.51697,1.97863 1.11333,3.93247 1.74534,5.87715 0.5937,1.46297 1.10163,2.95621 1.54759,4.47012 0.027,0.068 0.0541,0.13608 0.0811,0.20412 0.0129,0.0186 0.0258,0.0371 0.0387,0.0557 0,0 -3.77251,2.17841 -3.77251,2.17841 l 0,0 c -0.10632,-0.20184 -0.0511,-0.0812 -0.14939,-0.36889 -0.40087,-1.52458 -0.899,-3.0187 -1.49606,-4.47837 -0.62395,-1.9427 -1.2251,-3.89044 -1.77961,-5.85375 0,0 3.78483,-2.08447 3.78483,-2.08447 z"
     inkscape:connector-curvature="0" />
  <path
     style="fill:#000000;fill-opacity:1;fill-rule:nonzero;stroke:none"
     id="path3079"
     d="m 66.974536,641.28468 c 1.5942,0.85299 3.21149,1.66902 4.73675,2.64316 0.95754,0.51449 1.74887,1.26802 2.67983,1.81781 0.29661,0.24678 0.53236,0.54816 0.74157,0.86923 0,0 -3.7577,2.19223 -3.7577,2.19223 l 0,0 c -0.16948,-0.2712 -0.36356,-0.52322 -0.6269,-0.71166 -0.90359,-0.58513 -1.70885,-1.31037 -2.65113,-1.84168 -1.52307,-0.9585 -3.12081,-1.79206 -4.72982,-2.59555 0,0 3.6074,-2.37354 3.6074,-2.37354 z"
     inkscape:connector-curvature="0" />
  <path
     style="fill:#000000;fill-opacity:1;fill-rule:nonzero;stroke:none"
     id="path3083"
     d="m 53.711306,648.18479 c -0.23793,0.11827 -0.47929,0.22989 -0.71379,0.35482 -0.27397,0.14596 -0.54073,0.30504 -0.8111,0.45756 -0.28742,0.14708 -1.14044,0.6051 -0.86225,0.44124 5.5266,-3.25517 2.74039,-1.57387 1.54666,-0.66146 -1.11313,0.86639 -2.08277,1.88285 -3.01922,2.93082 -0.77167,0.95342 -1.58778,1.88195 -2.19551,2.95109 -0.60914,1.17602 -1.12697,2.40453 -1.60874,3.63876 -0.59658,1.36806 -1.04409,2.79298 -1.54923,4.19581 -0.59332,1.58497 -1.24915,3.13064 -1.62243,4.78606 -0.32002,1.24292 -0.7577,2.44427 -1.21115,3.64259 -0.25989,1.01805 -0.64558,1.99598 -0.94581,3.00173 -0.20741,1.11975 -0.59228,2.18811 -0.95364,3.26472 -0.58072,1.75515 -1.30326,3.45819 -1.80151,5.2397 -0.26039,1.28938 -0.72003,2.52278 -0.99759,3.80829 -0.20616,1.0065 -0.21073,2.03698 -0.22498,3.05977 -0.01,1.24319 3.3e-4,2.48641 0.002,3.72962 0.0469,1.10609 -0.0856,2.22666 0.0771,3.32408 0.16553,1.11026 0.55173,2.1546 0.87282,3.22313 0.2821,1.26423 0.70962,2.485 1.18471,3.68706 0.45751,1.06423 0.91958,2.12424 1.42615,3.16632 0.5826,1.00826 1.20573,1.99383 1.83169,2.97645 0.57291,1.18476 1.32078,2.24029 2.07624,3.3094 0.73577,1.13925 1.55717,2.21017 2.37772,3.28751 0.6918,0.81636 1.481,1.53899 2.19664,2.33206 0.74976,0.7094 1.61861,1.24947 2.37656,1.94798 0.93916,0.81437 1.8754,1.60279 2.94867,2.23796 0.79435,0.62303 1.6678,1.14147 2.55212,1.62886 0.85161,0.48026 1.6846,1.01787 2.56464,1.44659 0.76677,0.52888 1.55364,1.03163 2.38488,1.45333 0.85503,0.52916 1.78979,0.88708 2.6888,1.32908 0.79607,0.31616 1.58792,0.63739 2.39158,0.94097 1.0181,0.17383 1.99116,0.47138 2.99029,0.73157 1.06358,0.10389 2.01928,0.58022 3.04538,0.83223 0.92991,0.24603 1.81857,0.60995 2.76151,0.82514 0.93254,0.15527 1.88252,0.16009 2.82553,0.16862 0.75422,0.006 1.50842,-0.005 2.26261,-0.006 0.67559,0.0164 1.35425,-0.0867 2.00061,0.12702 0.68424,0.29859 1.40802,0.46144 2.14726,0.54026 0.889,0.0672 1.78109,0.064 2.67202,0.0663 1.03573,-10e-4 2.07147,-0.002 3.10721,-10e-4 1.0295,-0.004 2.059,-0.004 3.08851,-0.003 1.05075,-9.7e-4 2.10151,-5.3e-4 3.15227,-5.3e-4 1.04463,-0.002 2.08927,0.002 3.1339,-1.5e-4 1.117744,0.002 2.235484,10e-4 3.353234,8.3e-4 1.05487,0.003 2.10973,-0.002 3.16459,-0.002 1.02998,0.0651 2.00646,-0.0214 3.00934,-0.23871 1.38724,-0.17748 2.73392,-0.51146 4.09968,-0.80181 1.43487,-0.42637 2.85025,-0.89629 4.26981,-1.37097 1.24657,-0.60344 2.53164,-1.10889 3.79742,-1.66693 -0.98649,0.92305 3.27234,-1.72036 1.89607,-0.91244 -3.94321,2.31478 -4.99305,2.76271 1.29992,-0.66621 0.24504,-0.13352 0.50199,-0.24389 0.75298,-0.36584 1.84466,-1.01187 3.78009,-1.83691 5.67013,-2.75823 1.61272,-0.871 3.19171,-1.80626 4.83123,-2.62637 1.55105,-0.73333 7.13488,-3.87381 0.69477,-0.20501 11.08311,-6.38707 2.0578,-1.17982 1.45164,-0.84873 -0.2551,0.13933 0.48613,-0.31881 0.7308,-0.47574 0.71359,-0.45768 1.41936,-0.89608 2.09755,-1.40565 1.06437,-0.88499 2.32248,-1.48482 3.38756,-2.36612 0.82528,-0.75666 1.71513,-1.43405 2.6002,-2.11773 0.86961,-0.70738 1.59545,-1.57071 2.35517,-2.39065 0.77845,-0.70781 1.3427,-1.55617 1.87099,-2.45305 0.48182,-0.56899 0.69065,-1.28745 1.06257,-1.91789 0.46676,-0.734 0.54907,-1.62224 0.79306,-2.44335 0.22025,-1.07051 0.57503,-2.09681 0.94456,-3.12313 0.27617,-0.71642 0.32408,-1.47659 0.35666,-2.23481 0.0284,-0.96473 0.0155,-1.92999 0.0132,-2.89496 0.0191,-0.87164 -0.29193,-1.70262 -0.68984,-2.46401 -0.34594,-0.82016 -0.77503,-1.59838 -1.19433,-2.38242 -0.50236,-0.87075 -1.03795,-1.71159 -1.61706,-2.53106 -0.54762,-0.75346 -1.09198,-1.51759 -1.69763,-2.22461 -0.70697,-0.8608 -1.40622,-1.73221 -2.12215,-2.5885 -0.60137,-0.94494 -1.29166,-1.83109 -1.90151,-2.76908 -0.71629,-0.83417 -1.33349,-1.72958 -1.9781,-2.61594 -0.62543,-0.96391 -1.43244,-1.80886 -2.26137,-2.60194 -0.89587,-0.99156 -1.89327,-1.88137 -2.78158,-2.88088 -0.7707,-0.80927 -1.59333,-1.57061 -2.34183,-2.40055 -0.91519,-0.76996 -1.82693,-1.54779 -2.7736,-2.28093 -1.20947,-0.7856 -2.30559,-1.74686 -3.53862,-2.49465 -0.97277,-0.7266 -2.00786,-1.35515 -3.04917,-1.97493 -1.14148,-0.50125 -2.2713,-1.05751 -3.47529,-1.39639 -1.05133,-0.42924 -2.08647,-0.84492 -3.0694,-1.4191 -0.95901,-0.62421 -2.02692,-1.04582 -3.02826,-1.59076 -1.047,-0.38336 -1.94069,-1.03444 -2.88485,-1.60365 -0.99689,-0.6391 -2.07561,-1.14231 -3.06409,-1.7923 -1.07843,-0.68773 -2.29165,-1.11483 -3.42598,-1.69316 -0.89934,-0.49896 -1.83774,-0.93648 -2.70663,-1.48626 -0.98585,-0.57704 -1.98153,-1.13928 -3.00406,-1.64979 -1.11622,-0.5277 -2.043694,-1.34286 -3.056054,-2.02824 -0.91065,-0.60481 -1.85727,-1.15441 -2.83385,-1.64596 -0.86207,-0.5326 -1.81918,-0.87137 -2.70896,-1.33799 -0.93555,-0.34331 -1.77572,-0.88978 -2.71545,-1.2237 -0.8004,-0.14305 -1.49825,-0.56154 -2.27404,-0.78935 -0.83097,-0.14038 -1.59936,-0.48401 -2.40628,-0.72142 -0.90842,-0.0698 -1.73594,-0.35117 -2.59727,-0.62037 -0.70015,-0.30921 -1.51048,-0.15584 -2.19021,-0.47573 -0.65193,-0.36108 -1.3653,-0.47284 -2.09663,-0.54357 -0.66505,-0.0607 -1.33327,-0.0606 -2.00043,-0.06 -0.80232,-0.002 -1.60464,0.003 -2.40696,0.003 -0.61602,0.002 -1.23205,0.006 -1.84808,0.004 -0.53059,0.003 -1.06118,-7.4e-4 -1.59177,-3e-4 -0.48523,-0.002 -0.97049,0.004 -1.45571,0.002 -0.5564,-6.6e-4 -1.1128,-0.003 -1.6692,-10e-4 -0.53201,10e-4 -1.06404,4.3e-4 -1.59605,-10e-4 -0.60103,0.002 -1.20205,-2.8e-4 -1.80308,5e-4 -1.37274,0.88687 -0.29951,0.18469 3.40636,-1.78906 0,0 -3.87549,1.94258 -3.87549,1.94258 l 0,0 c 3.7593,-2.73362 2.16933,-2.52111 3.98039,-2.70459 0.60056,7.9e-4 1.20111,-0.002 1.80167,5.1e-4 0.53334,-0.002 1.06669,-0.003 1.60002,-10e-4 0.55734,0.002 1.11466,-3.8e-4 1.67199,-10e-4 0.48378,-0.002 0.96759,0.003 1.45138,0.002 0.53085,4.6e-4 1.06168,-0.003 1.59252,-3.7e-4 0.613,-0.002 1.22601,0.002 1.83901,10e-4 0.80491,-0.002 1.60984,-0.003 2.41475,-0.005 0.67533,0.007 1.3516,0.0179 2.02249,0.10456 0.75406,0.1048 1.47576,0.28457 2.16193,0.62328 0.71721,0.17518 1.47833,0.17402 2.17073,0.4655 0.85464,0.2801 1.71411,0.44536 2.59588,0.61428 0.80172,0.25383 1.58855,0.54621 2.41129,0.72664 0.76291,0.26839 1.49628,0.61243 2.28294,0.81126 0.92921,0.38157 1.80237,0.8871 2.73627,1.25877 0.91616,0.42677 1.82384,0.85119 2.70713,1.34702 0.981704,0.51673 1.950224,1.05974 2.861984,1.69374 0.98687,0.69308 1.9229,1.46515 3.02461,1.9801 1.02418,0.53077 2.03705,1.0827 3.02848,1.67245 0.88016,0.50999 1.77903,0.9861 2.67877,1.46085 1.15832,0.5597 2.36553,1.03226 3.45009,1.73369 1.00212,0.62557 2.06987,1.14173 3.06483,1.78143 0.92984,0.57925 1.84819,1.16656 2.86876,1.58157 1.01693,0.52272 2.06707,0.98568 3.03406,1.60143 0.97,0.53051 1.98175,0.94945 3.01534,1.33977 1.21557,0.38917 2.38395,0.93255 3.53306,1.48234 1.04942,0.61183 2.06157,1.28086 3.04945,1.98844 1.22438,0.78871 2.35447,1.72166 3.5647,2.53239 0.95584,0.75966 1.91512,1.51905 2.8208,2.33613 0.75817,0.82234 1.56872,1.59549 2.33651,2.40894 0.88568,0.98683 1.86769,1.87564 2.76295,2.85274 0.84702,0.81158 1.66949,1.67955 2.31013,2.66447 0.64143,0.89658 1.2799,1.78401 1.98589,2.63417 0.60584,0.92034 1.27834,1.79793 1.87393,2.72607 0.71731,0.85399 1.41581,1.7253 2.1251,2.58417 0.60624,0.72382 1.17908,1.4806 1.72063,2.25444 0.59051,0.83243 1.12267,1.69664 1.64094,2.57661 0.42995,0.78088 0.85769,1.56387 1.20137,2.38718 0.4223,0.8153 0.7906,1.71499 0.78786,2.64558 0.003,0.96927 0.003,1.9386 -0.004,2.90785 -0.0194,0.79553 -0.0436,1.59652 -0.29528,2.35959 -0.38692,1.01698 -0.78485,2.02488 -0.96568,3.1022 -0.25594,0.85356 -0.36653,1.73575 -0.72414,2.55259 -0.44917,0.60158 -0.57776,1.33975 -1.07702,1.91569 -0.59415,0.86033 -0.99478,1.85419 -1.84671,2.52798 -0.77018,0.82551 -1.51064,1.68061 -2.32353,2.46482 -0.91336,0.64154 -1.7674,1.3598 -2.62216,2.08022 -0.99989,0.98272 -2.29609,1.53395 -3.39051,2.398 -1.89707,1.57379 -12.01822,7.28449 -4.26225,2.78196 -2.66063,1.54338 -5.30216,3.07854 -8.05766,4.43993 -1.62029,0.84793 -3.20509,1.76111 -4.82584,2.60838 -1.90445,0.90227 -3.81998,1.7795 -5.68169,2.7684 -0.25351,0.1216 -0.9978,0.51568 -0.76054,0.36481 0.98041,-0.62344 4.0213,-2.32727 2.9938,-1.78493 -2.06934,1.09225 -3.99904,2.51163 -6.20059,3.35466 -1.28122,0.53423 -2.53447,1.12632 -3.82334,1.64165 -1.42265,0.47293 -2.84464,0.94546 -4.29411,1.33148 -1.36545,0.30544 -2.7311,0.57708 -4.11186,0.80355 -1.01866,0.19448 -2.03492,0.20156 -3.06992,0.17554 -1.05301,-1e-4 -2.10602,-0.005 -3.159044,-0.002 -1.11851,-3.5e-4 -2.23701,-8.6e-4 -3.35553,8.4e-4 -1.04446,-0.002 -2.08894,0.002 -3.1334,-2.1e-4 -1.05029,-10e-6 -2.10057,3.7e-4 -3.15085,-4.3e-4 -1.02826,0.002 -2.05651,0.002 -3.08477,4.7e-4 -1.03895,0.003 -2.0779,0.008 -3.11686,0.005 -0.90386,-0.005 -1.8103,-0.006 -2.70966,-0.10716 -0.74551,-0.1165 -1.46207,-0.32598 -2.17336,-0.5765 -0.6443,-0.0847 -1.29565,-0.0273 -1.94426,-0.0405 -0.7533,0.004 -1.50667,0.002 -2.25993,-0.006 -0.96358,-0.0225 -1.93725,-0.0363 -2.88203,-0.24707 -0.93298,-0.24245 -1.82419,-0.60985 -2.76109,-0.83554 -1.01386,-0.28693 -1.99071,-0.69208 -3.04319,-0.83553 -1.00604,-0.27767 -2.01812,-0.49379 -3.02331,-0.76423 -0.80742,-0.31665 -1.62682,-0.60844 -2.41143,-0.97619 -0.89744,-0.4494 -1.83936,-0.80301 -2.69456,-1.33576 -0.82045,-0.43963 -1.60105,-0.94559 -2.38254,-1.45057 -0.86996,-0.4647 -1.72161,-0.9683 -2.57594,-1.46077 -0.87585,-0.50687 -1.74874,-1.02757 -2.55,-1.64668 -1.07668,-0.67156 -2.03626,-1.4763 -2.99255,-2.30636 -0.77996,-0.68932 -1.67196,-1.23345 -2.40329,-1.98057 -0.73295,-0.79358 -1.51827,-1.53693 -2.21085,-2.36839 -0.823,-1.08151 -1.62819,-2.17027 -2.37905,-3.3039 -0.7622,-1.07264 -1.51064,-2.13692 -2.09506,-3.32256 -0.6366,-0.99558 -1.26106,-1.99975 -1.85634,-3.02017 -0.51004,-1.05253 -0.98226,-2.12051 -1.43786,-3.19704 -0.47975,-1.21271 -0.91881,-2.44304 -1.20509,-3.71828 -0.32259,-1.08572 -0.72871,-2.13893 -0.90354,-3.26525 -0.21591,-1.11421 -0.0525,-2.26241 -0.1036,-3.39247 -0.004,-1.24472 -0.005,-2.48944 -0.004,-3.73416 0.006,-1.04478 -0.0126,-2.10016 0.18257,-3.13102 0.25153,-1.30769 0.74504,-2.54213 1.00867,-3.84442 0.47472,-1.79445 1.20682,-3.49569 1.78608,-5.25695 0.34418,-1.07231 0.75848,-2.12391 0.9418,-3.23806 0.26969,-1.02743 0.71824,-1.99366 0.93661,-3.03585 0.4303,-1.19544 0.91183,-2.36671 1.25201,-3.59456 0.34638,-1.68265 0.98333,-3.24754 1.60403,-4.84327 0.51864,-1.39412 0.91601,-2.83231 1.5301,-4.18989 0.44899,-1.25913 1.01818,-2.4809 1.58561,-3.68852 0.55186,-1.1329 1.39523,-2.05428 2.15176,-3.05485 0.97607,-1.02368 1.86985,-2.13012 3.00295,-3.0003 2.50334,-1.98745 5.383,-3.41445 8.20749,-4.88677 0,0 -3.37212,2.69738 -3.37212,2.69738 z"
     inkscape:connector-curvature="0" />
  <path
     style="fill:#000000;fill-opacity:1;fill-rule:nonzero;stroke:none"
     id="path3085"
     d="m 173.06333,691.52157 c 1.93645,-1.0384 3.83492,-2.14785 5.85538,-3.01783 1.61018,-0.7165 3.2524,-1.3788 4.91225,-1.97351 1.28961,-0.37375 2.64841,-0.54649 3.98179,-0.37649 1.58756,0.22174 3.02294,1.03775 4.35433,1.8918 1.4476,0.86291 2.60686,2.01022 3.75564,3.21844 0.76771,0.82358 1.28575,1.7461 1.49916,2.8472 0.0479,1.55418 -0.73092,2.9032 -1.51083,4.18952 -0.89706,1.35903 -2.00777,2.56557 -3.24543,3.61972 -1.31132,0.79964 -3.67524,3.12315 -5.28905,2.54562 -0.0605,-0.0217 -0.81028,-0.4462 -0.86739,-0.4783 -0.87565,-0.60886 -1.24945,-1.4665 -1.4606,-2.476 -0.0454,-1.22357 0.3168,-2.32868 0.94825,-3.35835 0.68219,-1.04547 1.59401,-1.84712 2.62158,-2.53591 2.46219,-1.58543 4.9983,-3.08438 7.79662,-3.96753 1.71707,-0.42204 3.51528,-0.54901 5.27448,-0.40028 2.09289,0.15835 4.12803,0.59854 6.09277,1.32694 1.8778,0.63026 3.61436,1.6051 5.31515,2.60639 0.91812,0.48984 1.92576,0.92141 2.67915,1.65678 0,0 -3.68835,2.27786 -3.68835,2.27786 l 0,0 c -0.76531,-0.67476 -1.71657,-1.10234 -2.59906,-1.59718 -1.67316,-0.99767 -3.39802,-1.93397 -5.25274,-2.55019 -1.95154,-0.68016 -3.96747,-1.09205 -6.03387,-1.22213 -1.74015,-0.0816 -3.51,0.0413 -5.18643,0.54253 -0.72469,0.25509 -1.42382,0.54209 -2.12453,0.85739 -0.22379,0.10069 -0.87787,0.43574 -0.6696,0.30596 0.78929,-0.49186 4.5322,-2.68444 2.41542,-1.39639 -1.04964,0.61543 -1.9675,1.36696 -2.68532,2.36037 -0.6542,0.9436 -1.03946,1.88914 -1.08561,3.0547 0.16131,0.89522 0.45374,1.64693 1.26384,2.14731 0.38836,0.19794 0.69141,0.39003 1.14109,0.28709 0.1192,-0.0273 0.44748,-0.19373 0.34293,-0.13031 -2.6971,1.63623 -4.62597,2.60277 -2.95853,1.75837 1.27125,-1.00322 2.40577,-2.17236 3.33216,-3.50339 0.76447,-1.19569 1.51619,-2.43701 1.61365,-3.88779 -0.16831,-1.02766 -0.64336,-1.87717 -1.35767,-2.64056 -1.11441,-1.19225 -2.2719,-2.29111 -3.68901,-3.13163 -1.30693,-0.80615 -2.69644,-1.57071 -4.25182,-1.71717 -1.30996,-0.0722 -2.62518,0.0962 -3.86728,0.53072 -1.63671,0.62278 -3.28083,1.23399 -4.86913,1.97351 -2.0138,0.91185 -3.92121,2.02966 -5.87551,3.0601 0,0 3.37212,-2.69738 3.37212,-2.69738 z"
     inkscape:connector-curvature="0" />
  <path
     style="fill:#000000;fill-opacity:1;fill-rule:nonzero;stroke:none"
     id="path3087"
     d="m 144.1302,651.96559 c 2.75586,0.55996 5.20833,1.88986 7.41745,3.58722 1.51453,1.25569 2.82815,2.7427 4.07281,4.26129 0,0 -3.68967,2.2086 -3.68967,2.2086 l 0,0 c -1.20584,-1.50299 -2.46225,-2.99133 -3.96644,-4.20658 -2.18983,-1.64436 -4.62487,-2.93012 -7.36128,-3.36362 0,0 3.52713,-2.48691 3.52713,-2.48691 z"
     inkscape:connector-curvature="0" />
  <path
     style="fill:#000000;fill-opacity:1;fill-rule:nonzero;stroke:none"
     id="path3089"
     d="m 159.34366,645.5361 c 2.23452,0.76618 4.24477,1.99145 6.14616,3.37006 1.22333,0.97051 0.63145,0.45366 1.7734,1.55311 0,0 -3.63618,2.24023 -3.63618,2.24023 l 0,0 c -1.12101,-1.05776 -0.54008,-0.55675 -1.74183,-1.50413 -1.88433,-1.35297 -3.87974,-2.55714 -6.1171,-3.23329 0,0 3.57555,-2.42598 3.57555,-2.42598 z"
     inkscape:connector-curvature="0" />
  <path
     style="fill:#000000;fill-opacity:1;fill-rule:nonzero;stroke:none"
     id="path3115"
     d="m 56.810206,693.07398 c 1.06355,-0.32231 2.30711,-0.13063 3.30991,-0.62787 0.78949,-0.36876 1.62591,-0.58849 2.48529,-0.71023 0.24584,0.009 0.62328,-0.26186 1.30125,-0.4867 0.69846,-0.14599 0.94488,-0.20426 1.2945,-0.38949 1.2271,-0.43553 0.37517,-0.22918 1.77217,-0.88104 0.16068,-0.24421 2.65686,-0.5176 1.71087,-0.43001 0.26254,-0.17192 -0.31751,0.1867 0.15847,-0.10377 2.6814,-1.52813 4.8425,2.26394 2.1611,3.79207 l 0,0 c -0.48313,0.26906 -0.21836,0.13203 -0.79856,0.40274 -0.5202,0.14467 -1.0095,0.23386 -1.52277,0.35508 -0.47904,0.2356 -0.94785,0.61927 -1.49169,0.74974 -0.61593,0.31046 -1.25478,0.5592 -1.93631,0.65602 -0.70186,0.2175 -1.33611,0.66061 -2.10161,0.66554 -0.47802,0.0317 -0.9205,0.22422 -1.35561,0.40963 -1.37316,0.54034 -2.82369,0.6547 -4.26947,0.90355 -3.04428,0.50738 -3.76182,-3.79788 -0.71754,-4.30526 z"
     inkscape:connector-curvature="0" />
  <path
     style="fill:#000000;fill-opacity:1;fill-rule:nonzero;stroke:none"
     id="path3119"
     d="m 97.943026,681.4302 c 1.24855,-0.59012 2.700214,-0.66561 3.959384,-1.19132 0.65533,-0.3712 1.34859,-0.63195 2.07803,-0.81038 0.98154,-0.12476 0.41222,-0.0194 1.37336,-0.40673 0.57723,-0.16925 1.18691,-0.3858 1.79817,-0.38289 0.11365,5.5e-4 -0.23969,0.10204 -0.33797,0.045 -0.0736,-0.0428 0.15487,-0.0709 0.2323,-0.10633 0.16385,-0.22141 2.11788,-0.65941 1.50855,-0.56567 0.4546,-0.28538 0.99191,-0.40341 1.42313,-0.68487 0.46457,-0.40063 1.05132,-0.55443 1.60776,-0.76677 0.0527,-0.0201 -0.11023,0.0244 -0.16535,0.0365 0.0335,-0.0225 0.0669,-0.045 0.10036,-0.0675 2.63655,-1.60427 4.90532,2.12438 2.26877,3.72865 l 0,0 c -0.12331,0.0729 -0.24661,0.14578 -0.36992,0.21867 -1.14325,0.50256 -0.27995,0.0115 -1.13322,0.55464 -0.61268,0.37437 -1.27003,0.61712 -1.90334,0.94394 -0.54303,0.20884 -1.03296,0.31803 -1.53702,0.57868 -0.59729,0.26836 -1.21543,0.43705 -1.86156,0.51651 -0.67902,0.27335 -1.36857,0.58735 -2.10879,0.62999 -0.43643,0.0961 -1.03384,0.47441 -1.51816,0.65348 -1.33262,0.44178 -2.72242,0.70026 -4.034264,1.21704 -2.9279,0.97597 -4.30812,-3.1647 -1.38022,-4.14067 z"
     inkscape:connector-curvature="0" />
  <path
     style="fill:#000000;fill-opacity:1;fill-rule:nonzero;stroke:none"
     id="path3121"
     d="m 94.343686,704.56959 c 1.12209,1.47332 2.03363,3.0689 2.61157,4.82797 0.30038,0.9783 0.41962,1.99127 0.44707,3.01003 6.5e-4,0.98371 -0.009,1.96744 -0.0124,2.95117 -0.003,0.90247 -0.005,1.80495 -0.006,2.70742 -0.005,3.08627 -4.36926,3.07975 -4.36465,-0.007 l 0,0 c 10e-4,-0.90576 0.003,-1.81153 0.006,-2.71729 0.004,-0.94425 0.0109,-1.8885 0.0136,-2.83274 -0.0106,-0.60868 -0.0718,-1.21341 -0.2463,-1.79972 -0.36483,-1.25971 -1.10494,-2.3526 -1.85711,-3.41374 -1.92798,-2.40998 1.48024,-5.13655 3.40822,-2.72658 z"
     inkscape:connector-curvature="0" />
  <path
     style="fill:#000000;fill-opacity:1;fill-rule:nonzero;stroke:none"
     id="path3123"
     d="m 97.992706,710.58989 c 2.343534,0.20226 4.680224,0.45834 7.028814,0.59957 1.32635,0.0781 2.65453,0.11668 3.98297,0.13103 0.67186,-0.0511 1.18166,0.0923 1.85908,0.25646 2.84771,1.18982 1.16505,5.21708 -1.68265,4.02726 l 0,0 c 1.45157,0.18738 0.0901,0.0342 -0.22392,0.0807 -1.4003,-0.0153 -2.80033,-0.0562 -4.19842,-0.13869 -2.26079,-0.13692 -4.51336,-0.35659 -6.765874,-0.59165 -3.08627,0 -3.08627,-4.36465 0,-4.36465 z"
     inkscape:connector-curvature="0" />
  <path
     style="fill:#000000;fill-opacity:1;fill-rule:nonzero;stroke:none"
     id="path3125"
     d="m 69.176706,704.71304 c 1.25253,-0.18863 2.43149,-0.68858 3.6464,-1.03443 1.71095,-0.53602 0.87698,-0.71378 1.15081,4.15533 0.01,0.16887 -0.33011,0.0739 -0.49514,0.11098 -0.15456,0.0348 -0.30912,0.0697 -0.46368,0.10453 0.006,0.013 0.012,0.0261 0.018,0.0391 -0.0195,0.0192 -0.081,0.0735 -0.0586,0.0577 0.73289,-0.51684 1.03735,-0.7591 0.84954,-2.15628 -0.0657,-0.48877 -0.56072,-0.81207 -0.86315,-1.20162 -0.0383,-0.0494 -0.20201,-0.0684 -0.15348,-0.10787 0.0678,-0.0551 0.17411,0.0136 0.26117,0.0204 0.5454,0.0427 0.26513,0.0249 0.84092,0.052 3.08247,0.15309 2.86597,4.51236 -0.2165,4.35927 l 0,0 c -0.77768,-0.0402 -0.39139,-0.0136 -1.1589,-0.0795 -0.38834,-0.0544 -1.29581,-0.14247 -1.59576,-0.37653 -2.07776,-1.6214 -1.82962,-3.3869 0.3121,-4.55157 0.94853,-0.36881 0.52716,-0.25085 1.27381,-0.41865 0.16871,-0.0379 0.42403,-0.26559 0.50619,-0.11344 2.18171,4.0402 2.91461,3.70385 0.97081,4.30876 -1.36914,0.37494 -2.68893,0.95748 -4.10701,1.13706 -3.04428,0.50738 -3.76183,-3.79788 -0.71755,-4.30526 z"
     inkscape:connector-curvature="0" />
  <path
     style="fill:#000000;fill-opacity:1;fill-rule:nonzero;stroke:none"
     id="path3127"
     d="m 108.85465,696.70647 c 3.42504,-1.10191 1.73422,-1.72116 3.59971,3.24628 -0.44267,0.14534 -0.90121,0.22499 -1.35285,0.33398 -2.98958,0.76649 -4.07356,-3.46141 -1.08399,-4.2279 l 0,0 c 0.40516,-0.10157 0.81784,-0.1646 1.21554,-0.29638 0.72457,1.26732 1.64514,2.44118 2.17372,3.80195 0.0847,0.21797 -2.93263,1.20745 -3.17191,1.28274 -2.9279,0.97596 -4.30812,-3.1647 -1.38022,-4.14067 z"
     inkscape:connector-curvature="0" />
  <path
     style="fill:#000000;fill-opacity:1;fill-rule:nonzero;stroke:none"
     id="path3129"
     d="m 108.85465,695.97903 c 1.41083,-0.47302 2.81926,-0.98772 4.30486,-1.14037 1.22601,0.18772 0.61179,-0.0149 1.8139,0.68903 2.28863,2.07057 -0.63959,5.30718 -2.92822,3.23662 l 0,0 c 0.93308,0.48226 0.48941,0.38649 1.29017,0.43545 0.28477,-0.11509 0.21198,-0.0788 -0.3696,0.0751 -0.67871,0.17958 -1.34421,0.38264 -2.01021,0.60464 -0.24023,0.0801 -0.48045,0.16015 -0.72068,0.24023 -2.9279,0.97596 -4.30812,-3.16471 -1.38022,-4.14067 z"
     inkscape:connector-curvature="0" />
  <path
     style="fill:#000000;fill-opacity:1;fill-rule:nonzero;stroke:none"
     id="path3145"
     d="m 325.35936,593.66936 c -1.35579,-0.84911 -2.73815,-1.68355 -4.28103,-2.13877 -1.07214,-0.25249 -2.17917,-0.28018 -3.27546,-0.29737 -0.8206,-0.007 -1.6412,0.003 -2.46176,0.0107 -1.65626,0.27725 1.11892,-0.53051 -0.68546,0.26276 0.73547,-0.37076 0.009,0.0395 0.0226,0.37407 -0.17285,0.74144 -0.59557,1.38586 -0.8224,2.1066 -0.0678,0.21941 -0.1091,1.5577 -0.0797,0.71199 0.23967,0.58599 0.41027,1.11525 0.62986,1.5829 0.30589,0.80008 0.73882,1.50925 1.06316,2.30963 0.33834,0.8485 0.70747,1.66425 0.93579,2.55779 -0.10923,0.15013 0.57201,1.89947 0.37504,1.24952 0.33132,0.50693 0.68411,0.99134 1.07489,1.45324 0.41084,0.45401 0.84318,0.88771 1.27501,1.32155 -0.20983,-0.27972 -0.0708,-0.0769 0.39266,0.28005 0.35751,0.27534 0.72278,0.54836 1.08395,0.82456 0.56575,0.39519 1.09696,0.83503 1.6104,1.29538 0.49995,0.51069 1.02953,0.94868 1.55973,1.39843 0.76958,0.49253 1.43,1.13065 2.01255,1.82989 0.45421,0.52524 0.8756,0.85635 1.37374,1.32723 0.58189,0.35391 0.94757,0.95887 1.4637,1.3851 0.62944,0.60635 1.1326,1.15953 1.65247,1.82938 0.44356,0.58288 0.86829,1.1723 1.28573,1.77048 0.43979,0.47821 0.64008,1.31749 1.14416,1.72496 0.54044,0.80983 1.10961,1.59283 1.55017,2.46313 0.41335,0.36772 0.70955,1.15445 0.97676,1.74852 0.0231,0.0515 -0.0291,-0.10904 -0.0437,-0.16356 0.34337,0.55982 0.92729,1.07622 1.42068,1.68258 0.53126,0.5199 0.86053,1.20938 1.37138,1.73587 0.32246,0.484 0.56494,0.64425 0.97599,0.9997 0.51861,0.44131 1.01155,0.91133 1.4997,1.38575 0.52346,0.62275 1.10546,1.19167 1.61839,1.82426 0.33889,0.24014 0.6537,0.54084 0.96924,0.81887 0.69316,0.57331 1.16916,1.31706 1.62321,1.91022 0.30663,0.45421 0.75391,0.86471 1.20751,1.33091 0.5304,0.69948 0.56726,0.53401 1.25928,1.38064 0.30844,0.59887 0.65487,0.94043 1.12211,1.55248 0.39696,0.72346 0.89915,1.37221 1.2911,2.10042 0.30232,0.75437 0.68015,1.48912 1.07327,2.24564 0.4485,0.98476 0.98198,1.91146 1.33581,2.94091 0.17509,0.73128 0.57106,1.37116 0.80477,2.10406 0.22906,0.82536 0.26223,1.68405 0.28296,2.53501 -0.0646,-0.8704 0.70486,1.50903 0.29196,0.40463 0.18573,0.27638 0.35863,0.56095 0.53148,0.84543 1.60146,2.63826 -2.1296,4.90307 -3.73106,2.26481 l 0,0 c -0.12525,-0.20656 -0.25062,-0.41308 -0.38204,-0.61581 -0.492,-0.87992 -0.93343,-1.78107 -1.07376,-2.79557 -0.0108,-0.47199 -0.0115,-0.95101 -0.10905,-1.4145 -0.0875,-0.68107 -0.76055,-1.21466 -0.75106,-1.93334 -0.2673,-0.82064 -0.74526,-1.53404 -1.07547,-2.32789 -0.37586,-0.72829 -0.73957,-1.48023 -1.05805,-2.21654 -0.27186,-0.53979 -0.67457,-1.00903 -0.94071,-1.54283 -0.38952,-0.58557 -0.7963,-0.94545 -1.15807,-1.58591 -0.0394,-0.0697 0.10219,0.12339 0.15329,0.18508 -0.32428,-0.40867 -0.73744,-0.72237 -1.0512,-1.14185 -0.47555,-0.58975 -1.11403,-1.057 -1.52221,-1.70691 -0.36901,-0.53375 -0.58352,-0.86345 -1.00965,-1.24441 -0.56031,-0.49376 -1.15442,-0.95659 -1.62474,-1.54189 0.36142,0.2618 -1.15346,-1.18233 -1.1204,-1.24705 -0.42725,-0.41587 -0.85832,-0.82833 -1.31298,-1.21441 -0.59385,-0.51452 -1.09238,-1.04865 -1.34514,-1.35947 -0.5542,-0.62185 -0.9738,-1.31606 -1.54087,-1.93332 -0.55448,-0.69377 -1.23457,-1.28463 -1.69045,-2.05503 -0.38549,-0.69239 -0.65869,-1.39141 -1.1766,-2.01245 -0.29948,-0.62471 -0.74846,-1.1523 -1.103,-1.74709 -0.45084,-0.62524 -0.88096,-1.26546 -1.2878,-1.92317 -0.35861,-0.55254 -0.75298,-1.04827 -1.14616,-1.57756 -0.35326,-0.47397 -0.74461,-0.92049 -1.18179,-1.30779 -0.68113,-0.6671 -0.9005,-0.98487 -1.61485,-1.53476 -0.33846,-0.28491 -1.13927,-1.08865 -1.60791,-1.59128 -0.43133,-0.55192 -0.9535,-0.91079 -1.52432,-1.3222 -0.48625,-0.50958 -1.12717,-0.88545 -1.59239,-1.42761 -0.45169,-0.41187 -0.93353,-0.78519 -1.43006,-1.14131 -0.53359,-0.44103 -1.15721,-0.90779 -1.82624,-1.41988 -0.51597,-0.51845 -1.03255,-1.03705 -1.51698,-1.5855 -0.45347,-0.53835 -0.87608,-1.0977 -1.25976,-1.68816 -0.53781,-0.8604 -0.95684,-1.75063 -1.08904,-2.7713 -0.1739,-0.72317 -0.52253,-1.35367 -0.77608,-2.05179 -0.22031,-0.70624 -0.71342,-1.31222 -0.93951,-2.01938 -0.35711,-0.76108 -0.6093,-1.5498 -0.90237,-2.33666 -0.16723,-1.08037 -0.16849,-2.10952 0.15506,-3.17037 0.25982,-0.77846 0.65912,-1.49258 0.8838,-2.28155 0.49689,-1.18771 1.18373,-2.18026 2.31764,-2.84154 0.76709,-0.33135 1.52557,-0.72212 2.39354,-0.62727 0.85731,-0.008 1.71468,-0.0188 2.57203,-0.0103 1.50949,0.0259 3.0308,0.092 4.49565,0.49239 1.75532,0.55986 3.40973,1.37505 4.94096,2.40395 2.76045,1.38023 0.80852,5.28409 -1.95193,3.90386 z"
     inkscape:connector-curvature="0" />
  <path
     style="fill:#000000;fill-opacity:1;fill-rule:nonzero;stroke:none"
     id="path3151"
     d="m 327.4547,588.86794 c 0.84676,1.00935 1.75409,1.9869 2.73333,2.8716 0.54991,0.4729 1.10582,0.93925 1.64107,1.4288 0.42506,0.35371 1.02604,0.83993 1.55953,1.31776 0.64433,0.46288 1.2419,1.00322 1.79786,1.56864 0.43408,0.34841 0.86269,0.70283 1.28434,1.06629 0.47723,0.41271 0.92471,0.85838 1.37285,1.30207 0.41012,0.40742 0.81807,0.81701 1.22657,1.22606 0.51052,0.51127 1.02137,1.02221 1.53221,1.53316 0.86923,0.79445 1.41848,1.83941 1.99926,2.84424 0.4984,0.54842 0.87418,1.08138 1.27174,1.5613 0.52554,0.72833 0.79936,1.19692 1.19564,1.91555 0.56239,0.80369 0.8678,1.7403 1.28241,2.62073 0.46865,0.74649 0.79648,1.56519 1.28304,2.30001 0.41615,0.89455 0.78022,1.2352 1.25182,2.18337 0.38585,0.6207 0.80951,1.26262 1.17801,1.91005 0.26128,0.59793 0.61914,1.13998 1.03045,1.64287 0.46208,0.45638 1.04352,1.25686 1.27038,1.59061 0.75279,1.10059 0.4733,0.62389 1.165,1.45321 0.26824,0.37298 0.57187,0.71562 0.88733,1.0489 0.48674,0.52756 0.93463,1.06758 1.3745,1.63237 0.34445,0.55124 0.76934,1.15479 1.07128,1.64992 0.57099,0.56776 0.81313,1.33071 1.06144,2.06962 0.026,0.0774 -0.0398,-0.15842 -0.0598,-0.23764 0.0161,-0.19759 0.75198,1.41122 0.64587,1.0973 0.56172,0.84979 0.69974,1.09642 0.83663,1.29362 0.23974,0.4317 0.54847,0.81001 0.86367,1.18739 0.35811,0.56357 0.84924,1.10802 1.23627,2.05725 0.24321,0.0515 0.62497,0.94598 0.7833,1.34964 0.0494,0.45592 0.20759,0.35814 0.62695,1.32234 -0.298,-0.5107 0.48193,1.18467 0.2552,0.94848 -0.0228,-0.0237 -0.57265,-1.35179 0.29226,0.20533 0.38757,0.70387 0.49621,1.49677 0.542,2.28521 0.004,0.11199 0.0724,1.5853 -0.15063,-0.51376 -0.0149,-0.14009 0.13834,0.24546 0.20854,0.36761 0.20991,0.36527 0.0638,0.0871 0.34755,0.74956 0.17083,0.56306 0.0923,0.25653 0.222,0.92293 0.5114,3.0436 -3.7929,3.76684 -4.30431,0.72324 l 0,0 c -0.0171,-0.20105 0.049,0.15753 -0.0112,-0.13188 0.0231,0.0324 0.0856,0.1335 0.0694,0.0971 -0.28709,-0.64486 -0.8234,-1.18913 -0.73954,-1.9777 -0.0167,-0.34864 -4.8e-4,-0.39672 -0.0212,-0.44281 -0.14057,-0.2821 -0.89181,-1.27507 -0.71882,-1.50711 -0.22795,-0.53932 -0.521,-1.0068 -0.7373,-1.56462 -0.01,-0.0254 0.0272,0.0471 0.0407,0.0707 -0.10208,-0.2973 -0.61573,-0.9004 -0.82164,-1.4542 0.30884,0.3128 -1.0691,-1.4173 -0.47208,-0.71257 -0.40525,-0.48685 -0.80352,-0.98197 -1.12255,-1.53107 -0.61283,-0.96245 -0.36349,-0.67312 -0.85455,-1.32022 -0.27834,-0.46382 -0.48406,-0.94687 -0.81542,-1.37268 -0.3479,-0.74703 -0.25642,-0.86046 -0.73004,-1.41034 -0.3708,-0.55545 -0.71687,-1.10435 -1.0939,-1.68125 -0.4581,-0.53103 -0.53873,-0.72936 -1.00351,-1.18098 -0.3789,-0.40441 -0.75189,-0.81586 -1.07767,-1.26508 -0.3714,-0.46346 -0.81105,-0.86634 -1.10893,-1.38649 -0.4484,-0.5781 -0.81671,-1.16967 -1.34902,-1.68497 -0.57078,-0.70931 -1.08945,-1.46406 -1.46811,-2.29571 -0.36653,-0.76367 -0.94956,-1.42789 -1.32032,-2.19439 -0.28066,-0.53455 -0.70172,-1.02649 -0.93329,-1.60485 -0.59099,-0.91141 -1.03687,-1.896 -1.58135,-2.83481 -0.37419,-0.80026 -0.64743,-1.64759 -1.15839,-2.37656 -0.3259,-0.60023 -0.4707,-0.8728 -0.76319,-1.2703 -0.54469,-0.72264 -1.14806,-1.39234 -1.66547,-2.1374 -0.37999,-0.67572 -0.72442,-1.39041 -1.29704,-1.92512 -0.51144,-0.51154 -1.02288,-1.02308 -1.534,-1.53494 -0.40273,-0.40328 -0.80492,-0.80708 -1.20922,-1.20879 -0.37688,-0.37321 -0.75184,-0.74969 -1.15209,-1.09805 -0.56154,-0.4844 -1.15605,-0.9305 -1.68134,-1.45536 -0.41397,-0.37605 -0.99751,-0.92346 -1.55239,-1.31654 -0.36854,-0.5369 -1.108,-0.76977 -1.51131,-1.27276 -0.52691,-0.4879 -1.08649,-0.93954 -1.62514,-1.41424 -1.14264,-1.04536 -2.2141,-2.18413 -3.20392,-3.3731 -1.92798,-2.40997 1.48024,-5.13655 3.40822,-2.72657 z"
     inkscape:connector-curvature="0" />
  <path
     style="fill:#000000;fill-opacity:1;fill-rule:nonzero;stroke:none"
     id="path3153"
     d="m 354.56222,652.18808 c 0.47342,1.35524 0.89533,2.72888 1.18608,4.13534 0.31214,0.40883 0.50205,0.89261 0.67985,1.37116 -0.006,-0.0314 -0.048,-0.10442 -0.0178,-0.0941 0.24393,0.0835 0.6807,1.18812 0.75623,1.39242 -0.0611,-0.14081 -0.27332,-0.29807 -0.18334,-0.42243 0.0147,-0.0203 0.38415,0.59611 0.4113,0.6333 0.0376,0.0514 -0.10758,-0.20367 -0.0466,-0.18523 0.51361,0.42695 1.11199,0.66339 1.687,1.00934 0.62537,0.18338 1.15342,0.59654 1.74719,0.83814 0.5993,0.21232 1.17791,0.46898 1.756,0.74345 0.3408,0.11805 0.68787,0.16334 1.04455,0.19422 0.60585,0.0855 1.11228,0.33897 1.63438,0.62773 2.68503,1.52174 0.53297,5.31894 -2.15206,3.7972 l 0,0 c -0.14929,-0.0912 -0.31984,-0.15661 0.11965,-0.0785 -0.86631,-0.0819 -1.71684,-0.24834 -2.51939,-0.59829 -0.71021,-0.33757 -0.86175,-0.4099 -1.78691,-0.75829 -0.70031,-0.35481 -1.37673,-0.72496 -2.1038,-1.03196 -0.60026,-0.36674 -1.26244,-0.62902 -1.80646,-1.08433 -0.86554,-0.5829 -1.47593,-1.33408 -1.93066,-2.27016 0.52247,0.63308 -0.82708,-1.08148 -0.70953,-1.21661 -0.23986,-0.68787 -0.74182,-1.26044 -0.85806,-2.00416 -0.2392,-1.23461 -0.64714,-2.4287 -1.04826,-3.61807 -0.97596,-2.92789 3.16471,-4.30811 4.14067,-1.38022 z"
     inkscape:connector-curvature="0" />
  <path
     style="fill:#000000;fill-opacity:1;fill-rule:nonzero;stroke:none"
     id="path3155"
     d="m 357.57797,665.51209 c -1.49866,0.63713 -2.92128,1.47068 -4.26484,2.39076 -1.07414,0.5908 -1.92826,1.47056 -2.778,2.33665 -0.41916,0.59818 -1.18355,1.00032 -1.52845,1.6478 -0.70212,0.89474 -1.52288,1.6755 -2.25213,2.5471 -0.70274,0.89333 -1.27624,1.87926 -1.94981,2.79753 -0.4289,0.51361 -0.65213,0.96752 -1.02204,1.55467 -0.18111,0.40259 -0.31723,1.02331 -0.51485,1.53749 -0.22245,0.85225 -0.56044,1.64672 -1.01446,2.40095 -0.24815,0.42757 -0.0864,0.0442 -0.11204,0.39535 -0.10205,0.97408 -0.56277,1.90691 -1.04248,2.74402 -0.27834,0.70896 -0.73648,1.32389 -1.13214,1.97016 -0.17484,0.3773 -0.47925,1.05219 -0.65535,1.58023 -0.12702,0.4552 -0.081,0.82071 -0.0892,-0.16204 0.1669,0.48114 0.52825,0.87909 0.93126,1.37316 0.50924,0.68088 0.86191,1.25915 1.26068,1.96666 0.43683,0.67364 0.87049,1.33635 1.32896,1.99649 0.65532,0.94425 1.27944,1.89361 1.73913,2.9512 0.35356,0.76918 0.79071,1.47717 1.20652,2.21176 0.60494,0.84329 0.9443,1.8268 1.38671,2.7559 0.40484,0.90806 0.9135,1.74894 1.24809,2.69469 0.2113,0.78774 0.58297,1.52104 0.81197,2.33318 0.0602,0.75089 0.36697,1.36713 0.60252,2.07384 0.0794,0.1696 0.78035,1.81452 0.5931,1.20855 0.41353,0.69796 0.60851,0.76254 1.17736,1.51253 0.75239,1.21199 0.81165,1.93785 0.60679,3.34538 -0.46449,0.88561 -1.06835,1.33964 -1.76025,1.82374 -0.33695,0.23576 -0.51137,0.28494 -0.27193,0.20571 -0.56511,0.45911 -0.87457,0.68869 -1.29547,1.26807 -0.58371,0.76551 -1.1981,1.50263 -1.76369,2.2813 -0.4458,0.61173 -0.89661,1.19601 -1.21137,1.8856 -0.027,0.21026 -0.0485,0.42276 -0.0534,0.63742 -0.0396,0.2659 0.10057,0.8749 -0.0537,-0.17967 -0.0773,-0.52879 0.28424,0.53009 0.30649,0.57895 0.0365,0.0854 0.16199,0.33272 0.10935,0.25622 -0.1221,-0.17746 -0.18156,-0.43568 -0.36083,-0.58347 -0.33001,-0.27206 -0.40402,-0.18015 -0.22029,-0.22537 -0.69781,-0.009 0.86518,-0.40929 1.11653,-0.54069 0.5793,-0.35903 1.11378,-0.78378 1.66668,-1.18192 0.0278,-0.0114 1.78828,-1.26038 1.16915,-0.81778 -0.0928,0.2363 0.834,-1.15907 0.6012,-0.86981 0.0966,-0.62438 0.40827,-1.23434 0.65296,-1.82118 0.088,-0.66571 0.30555,-1.28321 0.62806,-1.87309 0.1836,-0.53172 0.34965,-1.07075 0.59275,-1.59178 0.19439,-0.30624 0.28777,-0.63754 0.32797,-0.98979 0.11881,-0.6108 -0.22944,-1.85914 0.31007,0.24547 -0.49566,0.15792 1.21756,0.74725 0.84845,0.71723 -0.42021,-0.0342 -0.83344,-0.45803 -1.22065,-0.62056 -0.1717,-0.005 -0.34918,-0.0541 -0.52554,-0.0661 -3.06724,-0.34229 -2.58317,-4.68001 0.48406,-4.33773 l 0,0 c 0.61965,0.0772 1.23333,0.18329 1.81733,0.41681 0.31373,0.14296 1.25655,0.5164 0.91315,0.48575 -0.069,-0.006 -0.26181,-0.0866 -0.20043,-0.0546 1.29992,0.67836 0.56379,0.0745 1.51109,1.03192 0.35546,1.05925 0.57316,1.69388 0.38866,2.76 -0.11295,0.79816 -0.32084,1.58272 -0.71558,2.29247 -0.31116,0.61865 -0.38562,1.3583 -0.78866,1.95648 0.16958,-1.20348 -0.17189,1.24878 -0.34225,1.30725 -0.37264,0.89368 -0.40081,0.81341 -0.62502,1.75255 -0.41128,0.89281 -0.87482,1.45755 -1.22736,1.9575 -0.61301,0.66906 -1.28623,1.23142 -2.07921,1.68251 -0.74296,0.50639 -1.42488,1.1033 -2.22835,1.51896 -1.14747,0.56451 -2.36788,0.9453 -3.65588,0.96596 -1.24152,-0.19959 -2.4401,-0.70441 -2.92699,-1.9807 -0.32766,-0.74179 -0.74788,-1.47331 -0.63591,-2.32281 0.0274,-0.8063 0.15076,-1.59963 0.46045,-2.35123 0.44783,-0.94876 1.02822,-1.80142 1.65873,-2.6374 0.58395,-0.77985 1.18707,-1.54228 1.78614,-2.31134 0.50857,-0.66359 1.08292,-1.28753 1.7562,-1.7877 0.36739,-0.31666 2.1912,-1.98398 0.92089,-0.27626 -0.009,0.26077 -0.053,1.0395 -0.006,0.78279 0.0125,-0.0685 -0.10225,-0.23885 -0.0416,-0.20464 0.0401,0.0226 0.0632,0.067 0.0948,0.10051 -0.40442,-0.53851 -0.89253,-1.00861 -1.23517,-1.59085 -0.46766,-0.75113 -0.89797,-1.55129 -1.19521,-2.38642 -0.24864,-0.75353 -0.59884,-1.48354 -0.66647,-2.28414 -0.19038,-0.71064 -0.55642,-1.35544 -0.72996,-2.06963 -0.26394,-0.79555 -0.76522,-1.47056 -1.06667,-2.25111 -0.39662,-0.8378 -0.69557,-1.72187 -1.24339,-2.47982 -0.49298,-0.8737 -1.00647,-1.73109 -1.4213,-2.64648 -0.32704,-0.79269 -0.8371,-1.47164 -1.31349,-2.1801 -0.53395,-0.77355 -1.04188,-1.55758 -1.54842,-2.34816 -0.32569,-0.5876 -0.51163,-0.91478 -0.85355,-1.36366 -0.55366,-0.70763 -1.1398,-1.4199 -1.48477,-2.26173 -0.42756,-1.02427 -0.47389,-2.03954 -0.0922,-3.07883 0.28978,-0.85358 0.66836,-1.66102 1.06992,-2.46671 0.44435,-0.72448 0.76373,-1.09293 1.07855,-1.88032 0.1276,-0.21515 0.66213,-1.69648 0.45436,-0.70469 -0.0186,0.0886 0.0127,-0.18063 0.019,-0.27095 0.0837,-0.7916 0.26798,-1.57806 0.72924,-2.24456 0.33272,-0.53284 0.48489,-1.10745 0.67458,-1.71398 0.31608,-0.79344 0.42387,-1.66755 0.94915,-2.37259 0.068,-0.10001 0.57405,-0.98922 1.13751,-1.71963 0.73008,-0.99125 1.3343,-2.06973 2.12228,-3.01714 0.67166,-0.79966 1.41647,-1.52156 2.07817,-2.32546 0.58932,-0.75808 1.26443,-1.43437 1.93301,-2.12348 1.05059,-1.06877 2.1278,-2.13627 3.438,-2.8878 1.67996,-1.13576 3.4486,-2.17817 5.33862,-2.92199 2.92789,-0.97596 4.30812,3.1647 1.38022,4.14067 z"
     inkscape:connector-curvature="0" />
  <path
     style="fill:#000000;fill-opacity:1;fill-rule:nonzero;stroke:none"
     id="path3157"
     d="m 317.12711,612.37748 c -1.52271,0.71454 -2.92152,1.6568 -4.23708,2.69807 -1.19223,0.93717 -2.21468,2.06162 -3.37425,3.0346 -0.83582,0.71044 -1.62402,1.4706 -2.44323,2.19908 -0.83316,0.68395 -1.64799,1.38819 -2.44039,2.1189 -0.678,0.55626 -1.32028,1.16351 -2.06431,1.63374 -0.66667,0.45574 -1.31553,0.78587 -1.78391,1.09739 -0.65802,0.43118 -1.29366,0.88789 -1.94133,1.33157 -0.72141,0.52377 -1.54279,0.84033 -2.40505,1.0391 0.93764,-0.15471 -1.28461,0.61502 -1.38641,0.64219 -0.37863,0.0798 -0.76167,0.12709 -1.14746,0.15256 -0.10687,0.007 0.25658,-0.11468 0.32004,-0.0284 0.11581,0.15745 -0.36217,0.14716 -0.54273,0.22201 -0.70881,0.321 -1.47454,0.46019 -2.24372,0.52984 1.40386,-0.32047 -0.94207,0.51561 -1.0786,0.55431 -0.74673,0.17107 -1.51217,0.19645 -2.27456,0.20649 -0.69135,-0.0195 -1.345,-0.0268 -2.0011,0.1422 -1.14169,0.29662 -2.31231,0.35521 -3.44726,0.66589 -0.97226,0.31573 -1.97526,0.49802 -2.99082,0.59286 -1.00247,0.0649 -2.00766,0.057 -3.01167,0.0566 -0.74191,-0.103 -1.29626,0.14376 -1.99428,0.34645 -1.22917,0.41619 -2.46039,0.13694 -3.68398,-0.11951 -0.72851,-0.13346 -1.46864,-0.18993 -2.20775,-0.22171 -0.67363,-0.0192 -1.34762,-0.016 -2.02145,-0.015 -0.98998,0.0585 -1.90733,-0.0299 -2.82673,-0.43123 -0.29703,-0.14854 -0.54551,-0.24237 -0.85407,-0.25985 -0.75627,-0.1451 -1.41377,-0.55604 -2.17426,-0.66969 -0.73386,-0.0623 -1.44831,-0.11107 -2.17499,-0.24224 -0.74422,-0.2802 -1.51509,-0.43418 -2.30408,-0.50678 -0.98966,-0.0655 -1.9821,-0.0705 -2.97355,-0.0739 -0.64093,-0.001 -1.28186,0.002 -1.9228,0.003 -0.23831,-0.12813 -2.25043,0.22172 -1.0009,-0.0231 -0.11087,0.0515 -0.22652,0.0937 -0.33261,0.15438 -0.0525,0.0301 0.1294,-6.3e-4 0.17777,-0.037 0.0838,-0.063 0.27388,-0.30394 0.23797,-0.20548 -0.0763,0.20916 -0.18128,0.4067 -0.27192,0.61005 -0.11622,0.31906 -0.31075,0.66189 -0.34896,1.00617 -0.004,0.0385 0.0369,-0.0977 0.0746,-0.0891 0.0885,0.0201 0.0502,0.1745 0.0736,0.2622 0.10546,-0.0777 -0.15156,-0.27928 -0.0514,-0.31828 0.20115,-0.0783 0.32835,0.28164 0.50654,0.40348 0.21643,0.14797 0.45801,0.25551 0.68266,0.39068 0.74275,0.39145 1.5607,0.59782 2.38934,0.70089 0.61565,0.0685 1.2362,0.0695 1.85486,0.0683 0.69869,0.0237 0.61401,-0.0658 1.47197,-0.34279 0.44669,-0.16023 0.96974,-0.2626 1.46123,-0.66813 -0.13645,0.081 0.50556,-0.34421 0.37019,-0.27245 -0.82526,0.43746 0.64293,-0.61615 0.37119,-0.47598 0.23944,-0.4964 0.58014,-0.93853 0.91068,-1.37721 0.039,-0.0505 0.0779,-0.10096 0.1169,-0.15144 1.88771,-2.44164 5.34072,0.22799 3.45301,2.66963 l 0,0 c -0.0288,0.0372 -0.0576,0.0743 -0.0864,0.11147 -0.32773,0.43309 -0.62256,0.87737 -0.89068,1.3505 -0.56408,0.68636 -1.16785,1.36842 -1.92758,1.84414 -0.76363,0.4538 -1.58474,0.87808 -2.43899,1.12347 -0.90938,0.29299 -1.83336,0.6174 -2.8038,0.55343 -0.81884,0.001 -1.63989,-0.008 -2.45372,-0.10851 -1.41323,-0.20297 -2.79915,-0.57321 -4.049,-1.28578 -1.36427,-0.82139 -2.69227,-1.72714 -3.16374,-3.34377 -0.25513,-1.36737 -0.11267,-2.67615 0.53418,-3.92192 0.39105,-0.63297 -0.92657,1.51552 0.38863,-0.90645 0.39434,-0.72618 1.03285,-1.31045 1.78611,-1.64565 0.95939,-0.41616 1.91535,-0.49624 2.94796,-0.4404 0.64955,-0.002 1.2991,-0.005 1.94865,-0.003 1.12952,0.004 2.26041,0.0107 3.38735,0.0951 0.9816,0.10137 1.96935,0.25103 2.89568,0.6067 -0.19573,0.0756 -0.099,0.0265 0.28468,0.0403 0.40946,0.0148 0.82068,0.0406 1.22754,0.0894 0.14461,0.0173 0.2882,0.0424 0.4323,0.0636 0.0399,0.008 2.78629,0.69041 1.88149,0.62598 0.80328,0.10452 1.57259,0.31082 2.29541,0.68575 -1.22928,-0.18705 0.68256,0.0845 0.88109,-0.0231 0.73986,-10e-4 1.47994,-0.004 2.21953,0.0191 0.97553,0.0436 1.95186,0.12455 2.9118,0.31037 0.77754,0.16305 0.98886,0.35107 1.57134,0.19978 1.05152,-0.30532 2.10163,-0.6267 3.2131,-0.51958 0.87513,3.6e-4 1.75105,0.007 2.62525,-0.0396 0.76161,-0.061 1.50669,-0.22076 2.23366,-0.45784 1.17128,-0.31505 2.36089,-0.43239 3.54271,-0.69061 0.99147,-0.23864 1.97633,-0.31679 2.99358,-0.26916 0.39663,-0.004 0.79273,-0.0152 1.18728,-0.055 0.48373,-0.11024 1.22522,-0.68985 1.84633,-0.69014 0.32678,-0.0251 0.65211,-0.061 0.94786,-0.214 0.66202,-0.27369 1.33695,-0.52293 2.05811,-0.56626 0.12734,-0.009 0.97869,-0.56077 1.41612,-0.64893 0.35001,-0.0713 0.62515,-0.16124 0.91629,-0.3981 0.67148,-0.4396 1.30469,-0.92401 1.98075,-1.35785 0.63293,-0.41016 1.28996,-0.74321 1.9063,-1.17513 0.51047,-0.27732 0.91707,-0.76714 1.3848,-1.1204 0.82056,-0.75603 1.66146,-1.48834 2.52508,-2.19495 0.86756,-0.73571 1.66237,-1.55725 2.54091,-2.28201 1.20609,-0.96316 2.19843,-2.18076 3.45025,-3.09582 1.55319,-1.21734 3.19501,-2.32869 4.9849,-3.17242 2.76045,-1.38022 4.71238,2.52364 1.95193,3.90386 z"
     inkscape:connector-curvature="0" />
  <path
     style="fill:#000000;fill-opacity:1;fill-rule:nonzero;stroke:none"
     id="path3163"
     d="m 308.51796,594.04409 c -1.70763,-0.18234 -3.36078,-0.64956 -5.03323,-1.01832 -1.16574,-0.25293 -2.36008,-0.28808 -3.54782,-0.31565 -1.4502,0.007 -2.87678,0.0387 -4.29947,-0.27245 -1.16077,-0.22614 -2.30062,-0.52856 -3.45116,-0.80191 -1.53316,-0.46453 -3.06136,-0.90673 -4.5066,-1.60575 -1.24727,-0.51463 -2.43662,-1.13391 -3.62658,-1.76694 -1.2727,-0.81372 -2.40538,-1.81437 -3.54309,-2.80103 -0.96633,-0.74244 -1.78667,-1.67208 -2.76899,-2.39074 -0.95885,-0.86633 -1.87882,-1.77215 -2.81282,-2.66354 -0.89831,-0.82273 -1.62738,-1.79987 -2.43653,-2.7 -0.74763,-0.93599 -1.53186,-1.84181 -2.23451,-2.81557 -0.91967,-1.02127 -1.60645,-2.20764 -2.32837,-3.36751 -0.52468,-1.037 -1.14447,-2.02035 -1.62344,-3.0798 -0.52114,-0.8145 -0.86631,-1.6991 -1.09396,-2.63504 -0.13053,-0.71381 -0.48233,-1.45047 -0.67589,-2.31357 -0.0843,-0.86204 -0.21669,-1.65523 -0.47144,-2.47566 -0.29897,-0.96078 -0.41757,-1.95525 -0.47036,-2.95562 -0.0555,-1.04483 -0.0546,-2.07465 0.10204,-3.10843 0.30057,-1.12768 0.47724,-2.26838 0.82724,-3.38358 0.27015,-1.10308 0.78703,-2.08695 1.42808,-3.01332 0.75885,-1.01546 1.85458,-1.54826 2.96979,-2.06742 1.03785,-0.49418 2.16506,-0.69538 3.23849,-1.07834 1.1351,-0.4107 2.32233,-0.58425 3.51969,-0.67525 1.15756,-0.0593 2.31728,-0.0518 3.47599,-0.0507 1.27319,-0.0886 2.49811,0.0945 3.72955,0.39914 0.69916,0.21108 1.42118,0.2758 2.14606,0.31442 1.15621,0.22216 2.29853,0.55322 3.39789,0.97656 1.08157,0.32815 2.14313,0.72786 3.16704,1.20732 1.02826,0.47211 2.0699,0.91683 3.09265,1.40263 1.22872,0.60462 2.35119,1.39222 3.51252,2.11102 1.20298,0.85487 2.40782,1.70067 3.53813,2.65096 1.09906,0.80514 2.02428,1.80499 3.16093,2.56251 0.95774,0.69282 1.85561,1.45946 2.82681,2.13414 0.94269,0.6694 1.78975,1.4524 2.54062,2.32851 0.67844,0.95678 1.44661,1.84479 2.13349,2.79398 0.5372,0.91016 1.23207,1.70718 1.82194,2.57945 0.56747,0.87848 1.07401,1.76289 1.41061,2.75629 0.12862,0.96658 0.45876,1.87217 0.69536,2.81493 0.34583,1.25538 0.17885,2.57881 0.40305,3.84522 0.26256,1.11664 0.45343,2.24629 0.57843,3.38605 0.0822,0.86032 0.0919,1.72481 0.0957,2.58829 0.0662,1.17574 -0.25854,2.31806 -0.48251,3.4618 -0.16329,0.92789 -0.2113,1.87166 -0.24162,2.8119 -0.0165,0.56822 -0.0141,1.13671 -0.0124,1.7051 0.002,0.59489 0.003,1.18979 0.004,1.78469 0.0854,0.91219 -0.27016,1.7483 -0.66054,2.5468 -0.5511,1.04424 -1.99481,1.59025 -2.28015,1.73381 -2.7639,1.37329 -4.70602,-2.53546 -1.94212,-3.90875 l 0,0 c 1.49364,-0.72506 0.68288,-0.5003 0.30322,0.25369 0.7535,-1.53138 0.0202,1.01588 0.21495,-0.62114 -6e-4,-0.59207 -10e-4,-1.18414 -0.004,-1.77621 -0.002,-0.62092 -0.004,-1.24195 0.0148,-1.86268 0.0398,-1.17328 0.10717,-2.34995 0.32065,-3.50636 0.17027,-0.86866 0.45203,-1.71696 0.40112,-2.6036 -0.003,-0.71242 -0.008,-1.42568 -0.0702,-2.13593 -0.11685,-1.08815 -0.32389,-2.15998 -0.55843,-3.22869 -0.14918,-1.14199 -0.13187,-2.29379 -0.3221,-3.43088 -0.20342,-0.85292 -0.54417,-1.6777 -0.62331,-2.55664 -0.11953,-0.63311 -0.64065,-1.0969 -0.89848,-1.67054 -0.50648,-0.85313 -1.26747,-1.55213 -1.72835,-2.44198 -0.60266,-0.88352 -1.3564,-1.66196 -1.95088,-2.55442 -0.42649,-0.61088 -1.0887,-1.04172 -1.65725,-1.51107 -0.96065,-0.67042 -1.85761,-1.41855 -2.79847,-2.11457 -1.24113,-0.86416 -2.31798,-1.9048 -3.5099,-2.82819 -0.96682,-0.8199 -2.00906,-1.53402 -3.03099,-2.28192 -1.02284,-0.64046 -2.01591,-1.33314 -3.09346,-1.88079 -1.03343,-0.50375 -2.10038,-0.93546 -3.13975,-1.42561 -0.86296,-0.50322 -1.89042,-0.6915 -2.813,-1.05123 -0.67579,-0.26651 -1.38838,-0.41012 -2.05443,-0.68632 -0.9974,-0.0557 -1.99167,-0.15998 -2.95602,-0.43569 -0.89766,-0.22216 -1.74682,-0.36723 -2.68535,-0.27135 -1.05112,-10e-4 -2.10301,-0.008 -3.15334,0.0391 -0.80729,0.0558 -1.60661,0.15636 -2.37266,0.4335 -0.95296,0.33942 -1.93856,0.53653 -2.87196,0.92863 -0.47068,0.21656 -0.96473,0.3534 -1.32345,0.74239 -0.30883,0.50701 -0.63216,1.03366 -0.74352,1.68842 -0.30614,0.96705 -0.43367,1.96277 -0.71266,2.93987 -0.057,0.58903 -0.0504,1.3594 -0.0203,2.02278 0.0293,0.63767 0.0918,1.27125 0.28121,1.88465 0.28954,0.94054 0.49836,1.88507 0.5727,2.86659 0.13338,0.76296 0.57313,1.4357 0.65348,2.21289 0.14724,0.67663 0.48961,1.24965 0.82943,1.85166 0.38875,0.8845 0.93583,1.68603 1.34785,2.56053 0.67151,1.08515 1.31458,2.18648 2.17646,3.13904 0.60548,0.87157 1.32517,1.65549 1.97789,2.48885 0.70014,0.82462 1.38155,1.66368 2.16697,2.41542 0.80311,0.78839 1.63839,1.5443 2.4362,2.33944 1.03215,0.80905 1.969,1.73044 2.98168,2.56454 0.88873,0.77684 1.7774,1.54596 2.73284,2.24241 1.15035,0.61658 2.30378,1.20854 3.51205,1.70792 1.13201,0.59034 2.38142,0.85064 3.58043,1.26977 1.13866,0.27411 2.26294,0.57664 3.41449,0.7933 1.11815,0.28435 2.27902,0.0947 3.42375,0.16243 1.46926,0.0355 2.9443,0.098 4.3847,0.41692 1.59916,0.353 3.1769,0.80541 4.81046,0.97521 3.04428,0.50738 2.32674,4.81264 -0.71754,4.30526 z"
     inkscape:connector-curvature="0" />
  <path
     style="fill:#000000;fill-opacity:1;fill-rule:nonzero;stroke:none"
     id="path3169"
     d="m 277.55472,568.64303 c 1.52911,-0.31757 2.962,-0.8428 4.33365,-1.57372 0.86854,-0.42058 1.67814,-0.93493 2.52384,-1.39918 0.47964,-0.32888 0.90389,-0.72961 1.32361,-1.13013 0.33377,-0.42255 1.06419,-0.90372 1.27922,-1.14814 0.46179,-0.27804 0.67608,-0.63387 1.01901,-1.04337 0.82967,-0.86548 0.0695,-0.2117 1.01292,-1.23343 -0.10389,0.0781 -0.0935,0.0899 -0.0411,-0.0231 1.51203,-2.6905 5.31698,-0.55215 3.80494,2.13835 l 0,0 c -0.33351,0.57182 -0.13462,0.26415 -0.61717,0.90941 0.0952,-0.38707 -0.52494,0.82112 -0.82629,1.02641 -0.42636,0.49554 -0.81372,0.98257 -1.32834,1.39824 -0.0247,0.0199 0.0362,-0.0521 0.0543,-0.0782 -0.82583,0.79736 -0.56383,0.3743 -1.3497,1.2167 -0.6935,0.65776 -1.40475,1.30682 -2.23257,1.7942 -0.86121,0.4718 -1.69417,0.98905 -2.57347,1.42599 -1.78963,0.94986 -3.67387,1.62565 -5.66529,2.02527 -3.04428,0.50738 -3.76182,-3.79788 -0.71754,-4.30526 z"
     inkscape:connector-curvature="0" />
  <path
     style="fill:#000000;fill-opacity:1;fill-rule:nonzero;stroke:none"
     id="path3171"
     d="m 286.16387,566.28203 c 1.70358,0.7384 3.2961,1.72712 4.79888,2.81191 0.94706,0.53594 1.50823,1.59339 2.39728,2.1825 1.00897,0.88138 1.81467,1.96317 2.61548,3.03004 0.38142,0.5257 0.77596,1.04018 1.194,1.53722 0.24714,0.29385 0.26852,0.36998 0.19309,0.18509 0.52958,0.49264 0.89056,0.86775 1.48772,1.27445 0.6467,0.4796 1.29961,0.94335 1.98562,1.36729 0.83579,0.57142 1.63699,1.1925 2.42555,1.82409 0.50317,0.48108 1.11662,0.82558 1.68179,1.23259 0.0725,0.12065 1.29408,1.25034 0.86515,0.79449 2.88243,1.10304 1.3225,5.1794 -1.55992,4.07637 l 0,0 c -0.74201,-0.30723 -1.51871,-0.77461 -2.01992,-1.42925 -0.0387,-0.0506 0.10872,0.0663 0.16308,0.0995 -0.64427,-0.46455 -1.33871,-0.86888 -1.91772,-1.41516 -0.59327,-0.54743 -1.3108,-0.97588 -1.94478,-1.47736 -0.74697,-0.46747 -1.46505,-0.97459 -2.17678,-1.49338 -0.60352,-0.42663 -1.17674,-0.9005 -1.69407,-1.42769 -0.84115,-0.74126 -1.52568,-1.61321 -2.17359,-2.5282 -0.58316,-0.77703 -1.15657,-1.56767 -1.85474,-2.24464 -0.78161,-0.65752 -1.45218,-1.42834 -2.2496,-2.06921 -1.28224,-0.96639 -2.70146,-1.77784 -4.16845,-2.42679 -2.76045,-1.38023 -0.80852,-5.28409 1.95193,-3.90386 z"
     inkscape:connector-curvature="0" />
  <path
     style="fill:#000000;fill-opacity:1;fill-rule:nonzero;stroke:none"
     id="path3018"
     d="m 364.75695,638.72999 c 0.85657,1.7965 1.62386,3.63006 2.45994,5.43538 0.62471,1.20284 1.02994,2.50864 1.58972,3.73542 0.51365,1.20298 0.90642,2.45162 1.37379,3.67187 0.63861,1.5633 0.90703,3.22185 1.05874,4.89262 0.0674,1.71713 -0.42718,3.32053 -0.9325,4.93245 -0.23304,1.42513 -1.08058,2.42611 -2.13785,3.33948 -2.35645,2.03492 -5.23427,-1.2976 -2.87782,-3.33253 l 0,0 c 0.58234,-0.50267 0.59897,-0.20926 0.81537,-1.32794 0.33536,-1.0634 0.71206,-2.09086 0.74686,-3.22278 -0.10932,-1.27367 -0.29658,-2.53807 -0.79266,-3.72748 -0.43635,-1.17002 -0.82464,-2.35761 -1.30882,-3.50947 -0.49378,-1.20989 -0.94225,-2.4298 -1.5304,-3.6015 -0.81745,-1.76566 -1.56816,-3.55827 -2.40265,-5.31638 -1.39239,-2.78479 2.54589,-4.75393 3.93828,-1.96914 z"
     inkscape:connector-curvature="0" />
  <path
     style="fill:#000000;fill-opacity:1;fill-rule:nonzero;stroke:none"
     id="path3026"
     d="m 371.19942,662.46869 c 1.76587,2.01675 3.39155,4.14872 5.09449,6.2169 1.24263,1.65615 2.58734,3.23377 4.09814,4.65046 1.09046,0.87912 2.23919,1.68396 3.45978,2.37684 1.03495,0.6654 1.64891,1.28561 2.88985,1.24265 1.11195,-0.38316 2.24445,-0.77445 3.27998,-1.35314 1.3792,-0.72461 2.77928,-1.39538 4.13749,-2.15747 1.07344,-0.56686 2.03777,-1.27875 3.00279,-2.00547 0.75197,-0.65786 1.44105,-1.37984 2.17134,-2.06164 0.96033,-0.9091 2.10785,-1.55976 3.19208,-2.29608 0.95845,-0.63961 2.03999,-1.11124 2.91593,-1.868 0.30993,-0.22644 0.65458,-0.41664 0.82518,-0.7697 1.88485,-2.47813 5.38945,0.18745 3.5046,2.66558 l 0,0 c -0.47267,0.57709 -0.93394,1.14456 -1.57864,1.54197 -1.02338,0.79269 -2.13027,1.45283 -3.24542,2.10754 -0.90615,0.58636 -1.83901,1.13133 -2.63966,1.86561 -0.85552,0.75471 -1.6068,1.62572 -2.50396,2.33755 -1.1237,0.83779 -2.25164,1.65807 -3.49064,2.32316 -1.38289,0.77495 -2.80431,1.4639 -4.20943,2.19693 -1.70065,0.89005 -3.50865,1.65337 -5.43075,1.87575 -1.89148,-0.0677 -3.51355,-0.6744 -5.02,-1.83068 -1.50488,-0.87717 -2.94648,-1.86157 -4.27843,-2.98519 -1.64145,-1.54991 -3.12914,-3.25219 -4.48148,-5.06041 -1.71244,-2.08586 -3.3559,-4.22832 -5.1315,-6.26255 -1.94498,-2.43122 1.49329,-5.18183 3.43826,-2.75061 z"
     inkscape:connector-curvature="0" />
  <path
     style="fill:#000000;fill-opacity:1;fill-rule:nonzero;stroke:none"
     id="path3034"
     d="m 410.2686,661.69929 c 1.98211,1.03533 3.62938,2.30557 4.82249,4.20962 1.13811,2.1352 0.8299,4.39043 0.32854,6.64624 -0.38036,2.20229 -0.82209,3.93341 -2.45512,5.54875 -2.78677,1.66569 -4.46452,0.3634 -5.76696,-2.20655 -0.72723,-1.65838 -1.26979,-3.38985 -1.79232,-5.1213 -0.89562,-2.98189 3.3214,-4.24849 4.21702,-1.2666 l 0,0 c 0.44582,1.49254 0.91866,2.97991 1.51428,4.42016 0.0889,0.18194 0.22082,0.3486 0.26679,0.54583 0.0266,0.11398 -0.23235,-0.0321 -0.34935,-0.0352 -0.35428,-0.009 -0.79684,-0.002 -0.99216,0.35278 0.85917,-0.56809 0.72179,-2.24787 1.06107,-3.19993 0.25469,-1.12758 0.62813,-2.3153 0.17983,-3.44015 -0.6264,-1.23864 -1.86507,-1.81171 -3.00325,-2.51538 -2.78478,-1.39239 -0.81564,-5.33067 1.96914,-3.93828 z"
     inkscape:connector-curvature="0" />
  <path
     style="fill:#000000;fill-opacity:1;fill-rule:nonzero;stroke:none"
     id="path3040"
     d="m 336.9943,594.54044 c 2.37583,0.31333 4.77002,0.44075 7.16281,0.53528 2.01468,0.0732 4.03078,0.0818 6.04653,0.0857 1.84464,-0.0999 3.66026,0.0952 5.48285,0.35031 1.8565,0.28611 3.73817,0.25437 5.60152,0.45654 2.27256,0.15901 4.24297,0.85979 6.08355,2.18435 1.47513,1.26171 2.83436,2.64683 4.17099,4.05135 0.87004,0.91706 1.72385,1.88093 2.77876,2.59179 1.22448,0.96568 2.47854,1.89225 3.74968,2.79486 1.04815,0.90277 2.18612,1.68467 3.29551,2.50774 1.52538,1.18198 3.05787,2.35684 4.49603,3.64462 1.30759,1.03082 2.51306,2.18183 3.79833,3.23798 1.57168,1.04825 3.05701,2.11561 4.14781,3.67378 0.89374,1.25558 1.15319,2.8099 1.83777,4.16258 0.39677,0.83463 0.92366,1.6511 1.60412,2.28612 0.79714,0.23007 1.62305,0.39349 2.43674,0.57225 1.84532,0.41176 1.3738,-0.42648 0.55151,0.5448 -0.35315,0.25244 0.12741,0.72907 -0.41468,-0.10033 -0.13329,-0.20394 -0.328,-0.36037 -0.49484,-0.53792 -1.03231,-1.12319 -2.15355,-2.10254 -3.48297,-2.85139 -1.20796,-0.53387 -2.40622,-1.09389 -3.63727,-1.57297 -2.8969,-1.14094 -1.28336,-5.23778 1.61354,-4.09684 l 0,0 c 1.4304,0.56831 2.83864,1.19433 4.22754,1.85788 1.7102,1.00576 3.21769,2.23746 4.54857,3.714 1.26458,1.43259 2.29816,3.05987 1.79172,5.05443 -0.19026,0.37172 -0.31739,0.78325 -0.57078,1.11517 -1.20683,1.5809 -3.34352,1.55628 -5.08427,1.17217 -1.6379,-0.36505 -3.35285,-0.61699 -4.63811,-1.7981 -0.97073,-1.03179 -1.84767,-2.16776 -2.42796,-3.46985 -0.55246,-1.20207 -0.88845,-2.49437 -1.5467,-3.64358 -0.62524,-1.26493 -2.2988,-1.74114 -3.2661,-2.68761 -1.33009,-1.1036 -2.59431,-2.28453 -3.94498,-3.36467 -1.3215,-1.20726 -2.76629,-2.26959 -4.17029,-3.37761 -1.08575,-0.80709 -2.20638,-1.56821 -3.2276,-2.45832 -1.26155,-0.90356 -2.5192,-1.81401 -3.73233,-2.78254 -1.26694,-0.91677 -2.38982,-2.00236 -3.43711,-3.16221 -1.16261,-1.23811 -2.36657,-2.43711 -3.63309,-3.56909 -1.12086,-0.95746 -2.48938,-1.16893 -3.92422,-1.31832 -1.89483,-0.23356 -3.82266,-0.1401 -5.71075,-0.47044 -1.62536,-0.22754 -3.23419,-0.41308 -4.8811,-0.3078 -2.07102,-0.004 -4.1424,-0.0135 -6.2123,-0.0892 -2.57669,-0.10245 -5.15537,-0.24177 -7.7123,-0.59174 -3.07112,-0.51185 -2.34725,-4.85508 0.72387,-4.34322 z"
     inkscape:connector-curvature="0" />
  <path
     style="fill:#000000;fill-opacity:1;fill-rule:nonzero;stroke:none"
     id="path3046"
     d="m 435.70407,605.78041 c 1.62485,1.47501 3.45894,2.69175 5.07026,4.18478 1.57869,1.4628 3.49495,3.4993 4.97731,5.03888 3.00252,3.31042 1.5813,1.67842 4.27567,4.88551 2.00149,2.38491 -1.37129,5.21545 -3.37278,2.83053 l 0,0 c -2.55474,-3.04762 -1.20071,-1.48955 -4.07534,-4.66266 -1.20316,-1.25055 -3.34405,-3.51488 -4.65815,-4.73871 -1.69326,-1.57695 -3.64961,-2.83464 -5.33046,-4.42485 -2.20156,-2.20157 0.91192,-5.31505 3.11349,-3.11348 z"
     inkscape:connector-curvature="0" />
  <path
     style="fill:#000000;fill-opacity:1;fill-rule:nonzero;stroke:none"
     id="path3048"
     d="m 455.96311,596.53161 c 2.81635,1.89166 5.44571,4.06113 7.90102,6.40035 1.53709,1.47819 2.62674,3.28792 3.71945,5.08983 1.60054,2.67059 -2.17624,4.9341 -3.77678,2.26351 l 0,0 c -0.87507,-1.47242 -1.7496,-2.95067 -2.9824,-4.16781 -2.19522,-2.09841 -4.55042,-4.03189 -7.04585,-5.76289 -2.70326,-1.54472 -0.5187,-5.36771 2.18456,-3.82299 z"
     inkscape:connector-curvature="0" />
</svg>
